# xmcd
#
# Track frame offsets:
#	150
#	18090
#	35923
#	52533
#	72552
#	90057
#	107825
#	125035
#	144170
#	157790
#	176404
#	193619
#	210813
#	227764
#	244305
#	261920
#	279325
#	294385
#
# Disc length: 4160 seconds
#
# Revision: 2
# Processed by: cddbd v1.5.2PL0 Copyright (c) Steve Scherf et al.
# Submitted via: EasyCDDAExtractor 2010.6.0.0
#
DISCID=ec103e12
DTITLE=Various Artist - Motown Chartbusters Volume 12
DYEAR=1900
DGENRE=blues
TTITLE0=Being With You - Smokey Robinson
TTITLE1=Lady (You Bring Me Up) - Commodores
TTITLE2=We're Almost There - Michael Jackson
TTITLE3=Endless Love - Diana Ross and Lionel Richie
TTITLE4=Give It To Me - Rick James
TTITLE5=I'm Coming Out - Diana Ross
TTITLE6=You Like Me Don't You - Jermaine Jackson
TTITLE7=It Must Be Magic - Teena  Marie
TTITLE8=Oh No - Commodores
TTITLE9=One Day In Your Life - Michael Jackson
TTITLE10=Tenderness - Diana Ross
TTITLE11=Tell Me Tommorow (Part 1) - Smokey Robinson
TTITLE12=I Wanna Be Where You Are - Jose Feliciano
TTITLE13=I Must Be In Love - Syreeta
TTITLE14=Why You Wanna TryMe - Commodores
TTITLE15=Paradise In Your Eyes - Jermaine Jackson
TTITLE16=Super Freak (Part 1) - Rick James
TTITLE17=It's My Turn - Diana Ross
EXTD=another TIM1701 title system! Share the welth peeps!
EXTT0=
EXTT1=
EXTT2=
EXTT3=
EXTT4=
EXTT5=
EXTT6=
EXTT7=
EXTT8=
EXTT9=
EXTT10=
EXTT11=
EXTT12=
EXTT13=
EXTT14=
EXTT15=
EXTT16=
EXTT17=
PLAYORDER=
